<svg xmlns="http://www.w3.org/2000/svg" fill="none" viewBox="0 0 512 512"><rect width="512" height="512" fill="#fff" rx="102"/><path fill="#007680" d="m388.947 354.331-1.385 1.387c-25.94 25.722-61.629 41.678-101.046 41.678-61.47 0-113.884-38.689-134.392-93.067l-.639-1.601-.639-1.921c-17.259-50.002-6.286-107.742 33.132-148.031l-.054-.054c14.329-14.621 31.747-26.201 51.243-33.672 50.869-19.425 110.688-8.805 152.023 31.858l10.014 9.872 45.223-46.159.213.213L464 93.062a298.928 298.928 0 0 0-8.097-8.432c-52.254-51.39-122.087-73.855-189.735-67.612-54.385 5.016-107.386 28.657-148.667 70.76-41.495 42.371-64.027 96.269-67.809 151.18h-.16l-.372 6.778-.16 8.378v6.243l.266 6.511h.054c2.663 58.326 26.473 115.799 71.324 159.931 52.307 51.389 122.087 73.909 189.735 67.665 54.385-5.069 107.332-28.656 148.561-70.707l-49.805-49.575-20.188-19.851zM268.991 47.382c55.717-5.123 110.635 12.167 153.141 47.76l-25.674 26.202c-40.216-33.619-92.205-45.892-141.05-36.927l-8.416-33.726a202.47 202.47 0 0 1 21.999-3.309zm-129.757 61.795c22.691-23.16 50.39-40.556 80.592-51.069l7.83 31.218.639 2.562c-24.449 8.858-46.501 22.946-64.346 41.143-29.137 29.724-45.276 67.399-48.526 105.927H80.214c3.835-48.881 24.343-94.4 59.02-129.781zm75.638 342.436c-26.953-10.139-51.828-25.828-72.869-46.586-37.659-36.982-59.498-85.756-62.215-138.213h35.582c3.036 40.13 19.975 79.299 50.816 109.61 17.312 17.023 37.34 29.616 58.647 37.781l-9.961 37.408zm92.737 12.434a208.172 208.172 0 0 1-65.731-4.322l9.961-37.675a162.843 162.843 0 0 0 16.619 2.614c.853.107 1.652.161 2.451.214 1.811.16 3.675.32 5.486.427l3.409.16c1.492.053 2.983.107 4.421.107.852.053 1.652.053 2.504.053h1.651c1.065-.053 2.184-.053 3.249-.107 30.256-.854 58.54-9.498 82.883-24.12h.053c2.024-1.174 3.942-2.455 5.86-3.682.319-.214.586-.374.905-.587 1.811-1.228 3.622-2.455 5.38-3.736.213-.16.426-.32.639-.427l28.178 28.603c-31.107 23.961-68.554 38.849-107.918 42.478z"/><path fill="#002554" d="M195.798 252.836c0 50.109 40.696 90.879 90.713 90.879 50.071 0 90.766-40.77 90.766-90.879 0-50.162-40.695-90.932-90.766-90.932-50.017 0-90.713 40.77-90.713 90.932zm154.899 0c0 35.434-28.764 64.25-64.186 64.25-35.369 0-64.133-28.816-64.133-64.25 0-35.487 28.764-64.303 64.133-64.303 35.422 0 64.186 28.816 64.186 64.303z"/></svg>