<svg xmlns="http://www.w3.org/2000/svg" fill="none" viewBox="0 0 68 68"><path fill="#002554" d="M20.419 52h-3.417v-6.834h3.417V52zM32.71 29.268a1.028 1.028 0 0 1-1.014.858H19.392c-.501 0-.928-.361-1.01-.858l-.543-3.245H33.248l-.538 3.245zm.883-5.294h-3.766l.218-4.103h3.018a1.032 1.032 0 0 1 1.015 1.195l-.485 2.908zm-16.579-2.908c-.05-.296.033-.604.23-.83.193-.23.48-.365.78-.365h3.023l.218 4.103h-3.766l-.485-2.908zm6.304 2.908L23.1 19.87h1.421v-1.844a1.024 1.024 0 1 1 2.05 0v1.844h1.42l-.217 4.103h-4.456zm-5.294 15.04h32.95c.566 0 1.026.46 1.026 1.022v3.08h-4.444c-.566 0-1.026.456-1.026 1.023V52h-8.271v-7.86a1.02 1.02 0 0 0-1.023-1.023h-5.47c-.567 0-1.027.455-1.027 1.022V52h-8.271v-7.86a1.02 1.02 0 0 0-1.023-1.023h-4.443v-3.08c0-.563.46-1.023 1.022-1.023zm23.38 6.152h2.05a1.024 1.024 0 1 0 0-2.05h-2.05a1.024 1.024 0 1 0 0 2.05zm-15.86 0h2.053c.567 0 1.023-.46 1.023-1.027a1.02 1.02 0 0 0-1.023-1.023h-2.053a1.02 1.02 0 0 0-1.023 1.023c0 .567.456 1.027 1.023 1.027zm3.076-8.206h-6.152v-4.785h6.152v4.785zm21.745-10.662-10.653 6.153a1.043 1.043 0 0 1-1.08-.033l-2.55-1.684a1.026 1.026 0 0 1 1.13-1.713l2.02 1.335 3.934-2.271L42 27.317a1.026 1.026 0 0 1-.288-1.421 1.023 1.023 0 0 1 1.421-.292l2.02 1.335 4.19-2.42a1.024 1.024 0 0 1 1.4.379 1.024 1.024 0 0 1-.378 1.4zM52 52h-3.417v-6.834H52V52zm-15.79 0h-3.418v-6.834h3.417V52z"/><circle cx="34" cy="34" r="32.5" stroke="#002554" stroke-width="3"/></svg>