<svg xmlns="http://www.w3.org/2000/svg" fill="none" viewBox="0 0 68 68"><path fill="#007680" d="M48.445 19.027a1.022 1.022 0 0 0-1.336-.978l-9.657 3.104 10.993 3.318v-5.444zM19.737 42.739h9.228v-9.253c0-.567.459-1.027 1.024-1.027h9.228c.568 0 1.027.46 1.027 1.026v9.255h9.023c.564 0 1.023-.464 1.023-1.03v-3.083h-3.896c-.566 0-1.024-.46-1.024-1.03 0-.566.459-1.026 1.024-1.026h3.896v-2.056h-3.896c-.566 0-1.024-.46-1.024-1.03 0-.566.459-1.026 1.024-1.026h3.896v-4.524c0-.452-.297-.853-.73-.982l-29.53-8.908a1.011 1.011 0 0 0-.906.158c-.26.195-.414.5-.414.824v5.208h3.893a1.027 1.027 0 1 1 0 2.056H18.71v2.056h3.896c.566 0 1.024.46 1.024 1.03 0 .567-.458 1.026-1.023 1.026H18.71v2.056h3.896c.566 0 1.024.46 1.024 1.026 0 .57-.458 1.03-1.023 1.03H18.71v2.056h3.896c.566 0 1.024.46 1.024 1.027 0 .57-.458 1.03-1.023 1.03H18.71v3.082c0 .57.459 1.03 1.027 1.03zm31.24 5.205h-3.762v-3.149h-4.102v3.149h-4.92V34.515h-7.177v13.429h-5.118v-3.149h-4.099v3.149h-3.772a1.03 1.03 0 0 0 0 2.056h32.95a1.028 1.028 0 0 0 0-2.056zm-17.4 0V43.63a1.026 1.026 0 1 1 2.051 0v4.314h-2.05z"/><circle cx="34" cy="34" r="32.5" stroke="#007680" stroke-width="3"/></svg>