<svg xmlns="http://www.w3.org/2000/svg" fill="none" viewBox="0 0 153 142"><path fill="#fff" d="M123.224 57.78c.933-4.588 1.477-9.72 1.477-15.553C124.701 13.065 112.262 0 95.625 0 78.91 0 66.471 13.065 66.471 42.227c0 7.31.855 13.609 2.255 18.975-4.043-2.333-9.096-3.422-14.538-3.422-11.818 0-22.39 5.677-25.19 18.275H10.573v-2.333c8.552-7.388 17.182-14.698 25.422-22.397 8.397-8.01 15.472-16.097 15.472-27.218C51.467 8.01 40.349 0 25.81 0 12.595 0 .933 7.154 0 23.174h7.541C8.785 12.054 15.55 6.688 25.733 6.688c11.118 0 18.192 6.066 18.192 17.497 0 9.643-7.308 17.342-12.516 22.319-9.407 9.332-21.07 18.508-31.254 27.218v9.02h49.99v-6.687H36.928c2.488-7.855 8.552-11.587 17.104-11.587 11.117 0 18.192 6.065 18.192 17.497 0 9.643-7.308 17.264-12.517 22.241-9.329 9.41-20.99 18.586-31.253 27.296v9.02h53.954v-6.765H38.873v-2.255c8.552-7.388 17.26-14.698 25.5-22.397 8.319-8.01 15.393-16.097 15.393-27.218 0-.933 0-1.866-.078-2.8 4.51 3.5 9.952 5.133 15.938 5.133h.7c-1.011 4.588-1.477 9.876-1.477 15.709 0 29.084 12.361 42.071 29.076 42.071S153 129.013 153 99.929c0-29.085-12.361-42.15-29.076-42.15h-.7zM98.191 77.377c-.856.078-1.71.155-2.566.155-14.072 0-21.613-12.287-21.613-35.305 0-23.097 7.541-35.54 21.613-35.54 13.994 0 21.535 12.443 21.535 35.54 0 6.454-.622 12.053-1.788 16.797-7.619 2.489-13.683 8.477-17.181 18.353zm25.733 57.935c-13.994 0-21.535-12.287-21.535-35.383 0-23.019 7.541-35.461 21.535-35.461s21.535 12.442 21.535 35.46c0 23.097-7.541 35.384-21.535 35.384z"/></svg>