<svg xmlns="http://www.w3.org/2000/svg" fill="none" viewBox="0 0 15 15"><path fill="#007680" d="M7.499 0A7.499 7.499 0 0 0 0 7.5C0 11.643 3.357 15 7.499 15A7.5 7.5 0 0 0 15 7.5 7.5 7.5 0 0 0 7.499 0zm5.421 4.839H10.89c-.204-1.105-.529-2.08-.944-2.865A6.063 6.063 0 0 1 12.92 4.84zM7.5 1.45c.562 0 1.47 1.247 1.912 3.389H5.589C6.03 2.697 6.936 1.45 7.5 1.45zM1.572 6.29h2.35a15.257 15.257 0 0 0 0 2.42h-2.35a6.223 6.223 0 0 1 0-2.42zm.505 3.871H4.11c.202 1.105.53 2.08.943 2.865a6.074 6.074 0 0 1-2.976-2.865zM4.11 4.84H2.077a6.075 6.075 0 0 1 2.976-2.865c-.413.785-.74 1.76-.943 2.865zm3.389 8.71c-.563 0-1.469-1.246-1.91-3.388h3.825c-.445 2.142-1.353 3.389-1.915 3.389zm2.12-4.838H5.38a13.586 13.586 0 0 1 0-2.421h4.243c.07.83.069 1.591-.003 2.42zm.326 4.315c.415-.785.738-1.76.944-2.865h2.031a6.062 6.062 0 0 1-2.975 2.865zm1.133-4.315c.06-.837.06-1.585 0-2.421h2.348c.162.79.162 1.63 0 2.42h-2.348z"/></svg>