<svg xmlns="http://www.w3.org/2000/svg" fill="none" viewBox="0 0 22 20"><path fill="#fff" d="M16.725 5.625h-2.052V1.877C14.673.84 13.82 0 12.763 0H9.244c-1.056 0-1.91.84-1.91 1.877v3.748H5.28c-1.688 0-2.55 2.015-1.345 3.199l5.718 5.624a1.937 1.937 0 0 0 2.705 0l5.725-5.624c1.191-1.177.343-3.2-1.359-3.2zM11 13.126 5.275 7.502h3.962V1.877h3.526v5.625h3.962L11 13.126zM0 16.253C0 18.315 1.709 20 3.815 20h14.37C20.291 20 22 18.321 22 16.253v-3.285a.475.475 0 0 0-.478-.47h-.955a.474.474 0 0 0-.471.47v3.285c0 1.03-.861 1.877-1.91 1.877H3.814c-1.05 0-1.904-.84-1.904-1.877v-3.285a.48.48 0 0 0-.478-.47H.478a.475.475 0 0 0-.478.47v3.285z"/></svg>