<svg xmlns="http://www.w3.org/2000/svg" fill="none" viewBox="0 0 50 50"><circle cx="25" cy="25" r="24" stroke="#fff" stroke-width="2"/><path fill="#fff" d="M25 19.365a5.63 5.63 0 0 0-5.638 5.641A5.62 5.62 0 0 0 25 30.636a5.62 5.62 0 0 0 5.638-5.63A5.63 5.63 0 0 0 25 19.365zm0 9.306a3.675 3.675 0 0 1-3.663-3.665A3.67 3.67 0 0 1 25 21.33a3.67 3.67 0 0 1 3.663 3.677A3.675 3.675 0 0 1 25 28.671zm7.187-9.546a1.32 1.32 0 0 0-1.322-1.31c-.73 0-1.309.593-1.309 1.31 0 .73.579 1.323 1.309 1.323s1.322-.592 1.322-1.323zm3.738 1.335c-.089-1.763-.491-3.312-1.788-4.609-1.284-1.284-2.844-1.687-4.606-1.775-1.813-.101-7.25-.101-9.075 0-1.749.088-3.31.49-4.606 1.775-1.284 1.285-1.686 2.846-1.774 4.61-.101 1.813-.101 7.265 0 9.079.088 1.763.49 3.324 1.774 4.609 1.296 1.284 2.845 1.687 4.606 1.775 1.826.101 7.262.101 9.075 0 1.762-.088 3.322-.49 4.606-1.775 1.284-1.285 1.687-2.846 1.788-4.61.1-1.813.1-7.253 0-9.079zM33.57 31.492a3.708 3.708 0 0 1-2.09 2.09c-1.447.567-4.883.44-6.481.44-1.598 0-5.034.127-6.482-.44-.969-.39-1.711-1.12-2.089-2.09-.579-1.448-.44-4.886-.44-6.486 0-1.599-.126-5.05.44-6.485a3.636 3.636 0 0 1 2.09-2.09c1.447-.58 4.883-.454 6.481-.454 1.598 0 5.034-.126 6.482.453.956.378 1.699 1.121 2.089 2.09.579 1.436.44 4.887.44 6.486 0 1.6.139 5.038-.44 6.486z"/></svg>