<svg xmlns="http://www.w3.org/2000/svg" fill="none" viewBox="0 0 50 50"><circle cx="25" cy="25" r="24" stroke="#fff" stroke-width="2"/><path fill="#fff" d="M19.472 34V19.985h-4.14V34h4.14zm-2.07-15.927c1.325 0 2.401-1.16 2.401-2.551 0-1.392-1.076-2.522-2.401-2.522C16.077 13 15 14.13 15 15.522c0 1.391 1.077 2.55 2.402 2.55zM35 34v-7.696c0-3.782-.773-6.68-4.969-6.68-2.015 0-3.368 1.173-3.92 2.275h-.055v-1.914H22.08V34h4.14v-6.942c0-1.826.332-3.594 2.485-3.594 2.126 0 2.153 2.087 2.153 3.71V34H35z"/></svg>