<svg xmlns="http://www.w3.org/2000/svg" fill="none" viewBox="0 0 48 55"><path fill="#007680" d="m38.995 38.81-.16.158a16.414 16.414 0 0 1-11.59 4.78c-7.051 0-13.064-4.437-15.416-10.674l-.073-.184-.074-.22c-1.98-5.736-.72-12.36 3.8-16.98l-.005-.007a16.498 16.498 0 0 1 5.878-3.862c5.835-2.229 12.696-1.01 17.438 3.654l1.148 1.132 5.188-5.294.024.024 2.45-2.497a34.23 34.23 0 0 0-.928-.968C40.68 1.978 32.67-.599 24.91.117A27.33 27.33 0 0 0 7.858 8.234 27.389 27.389 0 0 0 .079 25.575H.061l-.043.777-.018.961v.717l.03.746h.007a27.406 27.406 0 0 0 8.181 18.346c6 5.894 14.004 8.478 21.764 7.761a27.34 27.34 0 0 0 17.041-8.11l-5.713-5.687-2.316-2.277zM25.235 3.6A23.908 23.908 0 0 1 42.8 9.078l-2.945 3.006c-4.613-3.857-10.577-5.264-16.18-4.236l-.965-3.869c.831-.171 1.674-.3 2.524-.38zM10.35 10.688a23.99 23.99 0 0 1 9.244-5.858l.898 3.581.074.294a19.766 19.766 0 0 0-7.382 4.72 19.661 19.661 0 0 0-5.566 12.15H3.581a23.811 23.811 0 0 1 6.77-14.887zm8.676 39.28a23.836 23.836 0 0 1-8.359-5.344A23.807 23.807 0 0 1 3.532 28.77h4.081a19.638 19.638 0 0 0 5.83 12.573 19.566 19.566 0 0 0 6.726 4.334l-1.142 4.291zm10.637 1.426a23.88 23.88 0 0 1-7.54-.495l1.143-4.322c.636.135 1.271.233 1.907.3.097.012.189.018.28.024.208.019.422.037.63.05.128.005.263.011.39.018.172.006.343.012.508.012.098.006.19.006.287.006h.19c.122-.006.25-.006.372-.012a19.474 19.474 0 0 0 9.508-2.767h.006c.232-.135.452-.282.672-.422.036-.025.067-.043.104-.068.207-.14.415-.281.617-.428a.506.506 0 0 1 .073-.05l3.232 3.282a23.91 23.91 0 0 1-12.379 4.872z"/></svg>