<svg xmlns="http://www.w3.org/2000/svg" fill="none" viewBox="0 0 167 55"><path fill="#007680" d="m38.995 38.81-.16.158a16.414 16.414 0 0 1-11.59 4.78c-7.051 0-13.064-4.437-15.416-10.674l-.073-.184-.074-.22c-1.98-5.736-.72-12.36 3.8-16.98l-.005-.007a16.498 16.498 0 0 1 5.878-3.862c5.835-2.229 12.696-1.01 17.438 3.654l1.148 1.132 5.188-5.294.024.024 2.45-2.497a34.23 34.23 0 0 0-.928-.968C40.68 1.978 32.67-.599 24.91.117A27.33 27.33 0 0 0 7.858 8.234 27.389 27.389 0 0 0 .079 25.575H.061l-.043.777-.018.961v.717l.03.746h.007a27.406 27.406 0 0 0 8.181 18.346c6 5.894 14.004 8.478 21.764 7.761a27.34 27.34 0 0 0 17.041-8.11l-5.713-5.687-2.316-2.277zM25.235 3.6A23.908 23.908 0 0 1 42.8 9.078l-2.945 3.006c-4.613-3.857-10.577-5.264-16.18-4.236l-.965-3.869c.831-.171 1.674-.3 2.524-.38zM10.35 10.688a23.99 23.99 0 0 1 9.244-5.858l.898 3.581.074.294a19.766 19.766 0 0 0-7.382 4.72 19.661 19.661 0 0 0-5.566 12.15H3.581a23.811 23.811 0 0 1 6.77-14.887zm8.676 39.28a23.836 23.836 0 0 1-8.359-5.344A23.807 23.807 0 0 1 3.532 28.77h4.081a19.638 19.638 0 0 0 5.83 12.573 19.566 19.566 0 0 0 6.726 4.334l-1.142 4.291zm10.637 1.426a23.88 23.88 0 0 1-7.54-.495l1.143-4.322c.636.135 1.271.233 1.907.3.097.012.189.018.28.024.208.019.422.037.63.05.128.005.263.011.39.018.172.006.343.012.508.012.098.006.19.006.287.006h.19c.122-.006.25-.006.372-.012a19.474 19.474 0 0 0 9.508-2.767h.006c.232-.135.452-.282.672-.422.036-.025.067-.043.104-.068.207-.14.415-.281.617-.428a.506.506 0 0 1 .073-.05l3.232 3.282a23.91 23.91 0 0 1-12.379 4.872z"/><path fill="#002554" d="m86.078 44.894-2.97-6.33H68.336l-2.915 6.33h-7.308l17.09-35.008h.984l17.09 35.008h-7.198zM70.363 33.55H81.08l-5.389-11.722-5.328 11.722zM98.549 10.768h6.813v34.125h-6.813V10.768zM121.077 44.893h-6.813V10.768h19.063v5.337h-12.25v7.487h8.511v5.392h-8.511v15.91zM136.511 27.772c0-10.51 7.142-17.445 17.908-17.445 3.905 0 8.628 1.322 11.212 3.195l-.55 5.833c-2.694-2.093-6.977-3.58-10.332-3.58-6.703 0-11.261 4.848-11.261 11.942 0 7.21 4.558 12.108 11.261 12.108 4.07 0 7.583-1.757 9.563-3.52L167 41.312c-3.788 2.645-7.852 4.022-12.581 4.022-10.766 0-17.908-6.99-17.908-17.562zM16.839 27.167c0 5.748 4.668 10.424 10.405 10.424 5.744 0 10.412-4.676 10.412-10.424 0-5.754-4.668-10.43-10.412-10.43-5.737 0-10.405 4.676-10.405 10.43zm17.768 0c0 4.064-3.3 7.37-7.363 7.37-4.057 0-7.356-3.306-7.356-7.37 0-4.07 3.3-7.376 7.356-7.376 4.064 0 7.363 3.305 7.363 7.376z"/></svg>