<svg xmlns="http://www.w3.org/2000/svg" fill="none" viewBox="0 0 167 55"><path fill="#fff" d="m39.001 38.81-.159.158a16.412 16.412 0 0 1-11.589 4.781c-7.05 0-13.061-4.438-15.413-10.676l-.074-.183-.073-.22c-1.98-5.736-.72-12.36 3.8-16.981l-.006-.006a16.498 16.498 0 0 1 5.877-3.863c5.834-2.228 12.695-1.01 17.436 3.655l1.148 1.132 5.187-5.295.024.025 2.45-2.498c-.3-.324-.61-.649-.929-.967C40.687 1.977 32.678-.6 24.92.116A27.323 27.323 0 0 0 7.869 8.233 27.391 27.391 0 0 0 .092 25.575H.073l-.042.777-.019.961v.716l.03.747H.05a27.409 27.409 0 0 0 8.18 18.346 27.368 27.368 0 0 0 21.761 7.762 27.334 27.334 0 0 0 17.039-8.111l-5.712-5.687L39 38.81zM25.243 3.6a23.902 23.902 0 0 1 17.564 5.478l-2.944 3.006C35.25 8.227 29.288 6.819 23.686 7.848l-.966-3.87c.831-.17 1.674-.3 2.523-.379zm-14.882 7.088a23.985 23.985 0 0 1 9.244-5.858l.898 3.58.073.294a19.763 19.763 0 0 0-7.38 4.72 19.662 19.662 0 0 0-5.566 12.15H3.592a23.813 23.813 0 0 1 6.77-14.886zm8.675 39.28a23.83 23.83 0 0 1-8.357-5.344A23.81 23.81 0 0 1 3.543 28.77h4.081a19.64 19.64 0 0 0 5.829 12.573 19.56 19.56 0 0 0 6.726 4.334l-1.143 4.291zm10.636 1.426a23.87 23.87 0 0 1-7.538-.495l1.142-4.322c.636.135 1.27.233 1.906.3.098.012.19.018.281.024.208.019.422.037.63.05l.39.018c.171.006.343.012.508.012.097.006.189.006.287.006h.189c.122-.006.25-.006.373-.012a19.468 19.468 0 0 0 9.506-2.767h.006c.232-.135.452-.282.672-.422.036-.025.067-.043.104-.068.207-.14.415-.281.617-.428a.512.512 0 0 1 .073-.05l3.232 3.282a23.905 23.905 0 0 1-12.377 4.873zM86.078 44.894l-2.969-6.33H68.337l-2.914 6.33h-7.307L75.204 9.886h.983l17.088 35.008h-7.197zM70.365 33.55h10.716l-5.389-11.723-5.327 11.723zM98.547 10.768h6.812v34.126h-6.812V10.768zM121.071 44.894h-6.811V10.768h19.06v5.337h-12.249v7.487h8.511v5.393h-8.511v15.909zM136.503 27.772c0-10.51 7.142-17.445 17.906-17.445 3.904 0 8.627 1.322 11.211 3.195l-.55 5.834c-2.694-2.094-6.977-3.581-10.331-3.581-6.702 0-11.259 4.848-11.259 11.942 0 7.211 4.557 12.108 11.259 12.108 4.069 0 7.582-1.757 9.561-3.52l2.688 5.008c-3.788 2.644-7.85 4.021-12.579 4.021-10.764 0-17.906-6.99-17.906-17.562z"/><path fill="#fff" d="M16.849 27.167c0 5.747 4.667 10.424 10.404 10.424 5.742 0 10.41-4.677 10.41-10.424 0-5.755-4.668-10.431-10.41-10.431-5.737 0-10.404 4.677-10.404 10.43zm17.765 0c0 4.064-3.299 7.37-7.361 7.37-4.057 0-7.356-3.306-7.356-7.37 0-4.071 3.3-7.377 7.356-7.377 4.062 0 7.361 3.306 7.361 7.377z"/></svg>