<svg xmlns="http://www.w3.org/2000/svg" fill="none" viewBox="0 0 50 50"><circle cx="25" cy="25" r="24" stroke="#fff" stroke-width="2"/><path fill="#fff" d="M35.326 19.985A10.988 10.988 0 0 0 38 17.375c-.953.393-1.999.674-3.063.779 1.101-.622 1.943-1.603 2.341-2.777a10.85 10.85 0 0 1-3.386 1.217A5.449 5.449 0 0 0 30.006 15c-2.961 0-5.33 2.269-5.33 5.046 0 .394.046.788.13 1.156-4.423-.219-8.365-2.216-10.993-5.282a4.817 4.817 0 0 0-.721 2.55c0 1.751.934 3.293 2.368 4.204a5.77 5.77 0 0 1-2.405-.64v.062c0 2.453 1.832 4.485 4.274 4.95a6.169 6.169 0 0 1-1.406.175c-.342 0-.675-.035-1-.08.676 1.998 2.638 3.453 4.979 3.496-1.832 1.367-4.127 2.155-6.616 2.155-.444 0-.86-.008-1.286-.06C14.36 34.167 17.163 35 20.18 35c9.807 0 15.164-7.692 15.164-14.358 0-.22 0-.438-.018-.657z"/></svg>