<svg xmlns="http://www.w3.org/2000/svg" fill="none" viewBox="0 0 20 20"><path fill="#fff" d="M9.999 0C4.476 0 0 4.477 0 10s4.476 10 9.999 10C15.524 20 20 15.523 20 10S15.524 0 9.999 0zm7.228 6.452H14.52c-.272-1.473-.705-2.774-1.26-3.82a8.083 8.083 0 0 1 3.968 3.82zM10 1.934c.749 0 1.96 1.662 2.549 4.518H7.452C8.04 3.596 9.248 1.934 10 1.934zM2.096 8.387H5.23a20.347 20.347 0 0 0 0 3.227H2.096a8.297 8.297 0 0 1 0-3.227zm.673 5.161H5.48c.27 1.473.706 2.774 1.257 3.82a8.1 8.1 0 0 1-3.968-3.82zM5.48 6.452H2.77a8.1 8.1 0 0 1 3.968-3.82c-.55 1.046-.988 2.347-1.257 3.82zM10 18.066c-.75 0-1.959-1.662-2.547-4.518h5.1c-.593 2.856-1.804 4.518-2.553 4.518zm2.827-6.452H7.174a18.115 18.115 0 0 1 0-3.227h5.656a18.21 18.21 0 0 1-.004 3.227zm.433 5.754c.555-1.046.985-2.347 1.26-3.82h2.708a8.084 8.084 0 0 1-3.968 3.82zm1.511-5.754c.08-1.116.08-2.112 0-3.227h3.131a8.117 8.117 0 0 1 0 3.227h-3.13z"/></svg>