<svg xmlns="http://www.w3.org/2000/svg" fill="none" viewBox="0 0 50 50"><circle cx="25" cy="25" r="24" stroke="#fff" stroke-width="2"/><path fill="#fff" d="M37.458 18.815a3.242 3.242 0 0 0-2.304-2.275C33.128 16 25.004 16 25.004 16s-8.132 0-10.158.54a3.242 3.242 0 0 0-2.304 2.275C12 20.822 12 25.022 12 25.022s0 4.187.542 6.195c.297 1.112 1.181 1.944 2.304 2.243 2.026.54 10.157.54 10.157.54s8.125 0 10.151-.54c1.123-.299 2.007-1.131 2.304-2.243C38 29.21 38 25.022 38 25.022s0-4.2-.542-6.207zm-15.12 10.007V21.21l6.795 3.812-6.795 3.8z"/></svg>